<svg width="618" height="421" viewBox="0 0 618 421" fill="none" xmlns="http://www.w3.org/2000/svg">
<g clip-path="url(#clip0_38_80)">
<path d="M148.933 421C231.186 421 297.866 417.627 297.866 413.466C297.866 409.305 231.186 405.932 148.933 405.932C66.6795 405.932 0 409.305 0 413.466C0 417.627 66.6795 421 148.933 421Z" fill="#E6E6E6"/>
<path d="M306.437 0C304.89 0.00179286 303.407 0.670055 302.313 1.85815C301.219 3.04624 300.604 4.65712 300.602 6.33733V241.279C300.604 242.959 301.219 244.57 302.313 245.759C303.407 246.947 304.89 247.615 306.437 247.617H612.166C613.713 247.615 615.196 246.947 616.289 245.759C617.383 244.57 617.998 242.959 618 241.279V6.33733C617.998 4.65711 617.383 3.04624 616.289 1.85815C615.196 0.670055 613.713 0.00179086 612.166 0H306.437Z" fill="#E6E6E6"/>
<path d="M307.166 240.487H611.436V7.12976H307.166V240.487Z" fill="white"/>
<path d="M220.555 298.646C218.687 298.647 216.875 299.343 215.424 300.62C213.972 301.897 212.967 303.676 212.578 305.66H223.953V336.671H212.578C212.998 338.812 214.132 340.708 215.763 341.995C217.394 343.281 219.405 343.866 221.41 343.636C223.414 343.407 225.269 342.38 226.617 340.753C227.966 339.126 228.712 337.014 228.712 334.825V307.506C228.712 306.343 228.501 305.191 228.091 304.116C227.681 303.041 227.08 302.064 226.322 301.241C225.565 300.418 224.666 299.766 223.676 299.321C222.687 298.875 221.626 298.646 220.555 298.646Z" fill="#3F3D56"/>
<path d="M128.841 244.378C124.953 244.383 121.225 246.063 118.476 249.049C115.727 252.035 114.18 256.084 114.176 260.308V382.762C114.18 386.985 115.727 391.034 118.476 394.021C121.225 397.007 124.953 398.687 128.841 398.692H200.111C204 398.687 207.727 397.007 210.477 394.021C213.226 391.034 214.772 386.985 214.777 382.762V260.308C214.772 256.084 213.226 252.035 210.477 249.049C207.727 246.063 204 244.383 200.111 244.378H128.841Z" fill="#3F3D56"/>
<path d="M121.313 413.089C125.442 413.089 128.79 409.453 128.79 404.968C128.79 400.482 125.442 396.846 121.313 396.846C117.183 396.846 113.836 400.482 113.836 404.968C113.836 409.453 117.183 413.089 121.313 413.089Z" fill="#3F3D56"/>
<path d="M204.921 413.089C209.05 413.089 212.398 409.453 212.398 404.968C212.398 400.482 209.05 396.846 204.921 396.846C200.791 396.846 197.444 400.482 197.444 404.968C197.444 409.453 200.791 413.089 204.921 413.089Z" fill="#3F3D56"/>
<path d="M130.829 243.27H126.751V399.061H130.829V243.27Z" fill="#4D4D4D"/>
<path d="M142.385 243.27H138.306V399.061H142.385V243.27Z" fill="#4D4D4D"/>
<path d="M153.94 243.27H149.862V399.061H153.94V243.27Z" fill="#4D4D4D"/>
<path d="M165.496 243.27H161.417V399.061H165.496V243.27Z" fill="#4D4D4D"/>
<path d="M177.051 243.27H172.973V399.061H177.051V243.27Z" fill="#4D4D4D"/>
<path d="M188.607 243.27H184.529V399.061H188.607V243.27Z" fill="#4D4D4D"/>
<path d="M200.163 243.27H196.084V399.061H200.163V243.27Z" fill="#4D4D4D"/>
<path d="M199.067 231.457C201.732 226.533 203.137 220.925 203.136 215.213H130.914C130.914 220.925 132.319 226.533 134.984 231.457H120.293C120.293 240.02 126.951 246.962 135.163 246.962H153.36C156.417 247.945 159.589 248.442 162.777 248.439H171.274C174.462 248.442 177.634 247.945 180.691 246.962H198.888C207.1 246.962 213.757 240.02 213.757 231.457H199.067Z" fill="#2F2E41"/>
<path d="M145.718 343.316C145.852 344.89 145.544 346.471 144.834 347.851C144.124 349.232 143.046 350.346 141.742 351.047L141.705 351.069C134.907 355.28 129.344 358.587 122.742 357.978C122.077 357.914 121.434 357.684 120.864 357.306C120.294 356.928 119.812 356.412 119.456 355.798C119.099 355.185 118.878 354.49 118.81 353.769C118.741 353.047 118.826 352.318 119.059 351.638L128.45 332.241C133.905 325.338 137.749 325.331 144.424 331.133L145.718 343.316Z" fill="#2F2E41"/>
<path d="M184.594 343.316C184.46 344.89 184.768 346.471 185.478 347.851C186.188 349.232 187.266 350.346 188.57 351.047L188.607 351.069C195.405 355.28 200.968 358.587 207.57 357.978C208.235 357.914 208.878 357.684 209.448 357.306C210.018 356.928 210.5 356.412 210.856 355.798C211.213 355.185 211.434 354.49 211.502 353.769C211.571 353.047 211.486 352.318 211.253 351.638L201.862 332.241C196.407 325.338 192.563 325.331 185.888 331.133L184.594 343.316Z" fill="#2F2E41"/>
<path d="M157.302 114.799H131.172C129.988 114.801 128.836 114.389 127.885 113.623C126.933 112.858 126.235 111.78 125.892 110.549C125.087 107.636 124.048 104.81 124.032 102.247C123.968 92.2987 124.423 85.9666 128.45 81.9424C141.869 70.8905 151.591 72.9234 160.738 84.5266C163.949 91.0089 163.124 100.684 161.388 111.08C161.216 112.122 160.713 113.065 159.966 113.744C159.219 114.424 158.277 114.797 157.302 114.799Z" fill="#2F2E41"/>
<path d="M143.744 127.351C153.505 127.351 161.417 118.756 161.417 108.154C161.417 97.5514 153.505 88.9567 143.744 88.9567C133.984 88.9567 126.071 97.5514 126.071 108.154C126.071 118.756 133.984 127.351 143.744 127.351Z" fill="#A0616A"/>
<path d="M157.339 146.548L132.868 147.286L130.829 118.491L154.62 117.752L157.339 146.548Z" fill="#A0616A"/>
<path d="M198.803 215.213L181.918 223.703C179.088 230.993 175.188 230.783 170.254 223.335C165.545 232.294 155.401 226.925 150.446 223.012C147.252 221.244 143.718 220.318 140.133 220.31C136.548 220.302 133.011 221.212 129.81 222.966L111.797 136.211C117.349 131.026 124.747 127.769 131.849 125.505L145.783 144.332L155.3 125.874C161.914 120.097 171.205 120.087 181.13 121.444L186.925 155.097C183.103 181.644 188.851 194.959 198.803 215.213Z" fill="#CE2B37"/>
<path d="M143.065 329.657L128.79 331.133L107.644 229.616C107.163 227.265 107.174 224.827 107.677 222.481C108.179 220.135 109.16 217.943 110.548 216.064C111.935 214.185 113.693 212.669 115.692 211.628C117.691 210.586 119.879 210.045 122.097 210.045C124.205 210.045 126.288 210.534 128.208 211.479C130.128 212.424 131.84 213.804 133.23 215.526C134.62 217.248 135.655 219.272 136.266 221.463C136.877 223.655 137.051 225.963 136.775 228.233L134.228 249.177L143.065 329.657Z" fill="#2F2E41"/>
<path d="M185.888 331.133L200.163 330.395L221.309 229.616C221.79 227.265 221.779 224.827 221.276 222.481C220.773 220.135 219.792 217.942 218.405 216.064C217.018 214.185 215.26 212.669 213.261 211.628C211.262 210.586 209.073 210.045 206.856 210.045C204.748 210.045 202.664 210.534 200.744 211.479C198.824 212.424 197.112 213.804 195.723 215.526C194.333 217.248 193.298 219.272 192.687 221.463C192.075 223.655 191.902 225.963 192.178 228.233L194.725 249.177L185.888 331.133Z" fill="#2F2E41"/>
<path d="M232.285 185.443L220.215 219.274C213.615 213.794 208.295 213.045 200.975 215.952C198.95 215.647 197.444 210.813 197.444 208.594C197.444 207.449 197.85 206.349 198.578 205.521C199.306 204.694 200.299 204.203 201.352 204.151L212.398 203.606C214.419 197.858 215.647 191.817 216.043 185.68C221.343 184.046 226.947 183.965 232.285 185.443Z" fill="#A0616A"/>
<path d="M233.47 186.418L236.412 174.491C237.697 170.129 237.571 165.421 236.055 161.148C234.538 156.874 231.722 153.292 228.074 150.996L181.13 121.444L180.45 153.931L215.117 170.174C216.074 175.702 216.385 181.338 216.043 186.95C221.45 185.205 228.049 184.834 233.47 186.418Z" fill="#CE2B37"/>
<path d="M161.078 97.4476L142.725 101.139C141.029 101.139 139.349 100.776 137.782 100.071C136.215 99.3665 134.792 98.3331 133.592 97.0305C132.393 95.7278 131.442 94.1813 130.793 92.4793C130.144 90.7772 129.81 88.953 129.81 87.1108H161.757L161.078 97.4476Z" fill="#2F2E41"/>
<path d="M127.431 104.831C128.369 104.831 129.13 103.178 129.13 101.139C129.13 99.1004 128.369 97.4476 127.431 97.4476C126.492 97.4476 125.731 99.1004 125.731 101.139C125.731 103.178 126.492 104.831 127.431 104.831Z" fill="#A0616A"/>
<path d="M183.509 159.898H183.312V154.024C183.312 153.578 183.231 153.136 183.073 152.723C182.916 152.311 182.685 151.936 182.395 151.62C182.104 151.305 181.759 151.054 181.379 150.883C181 150.713 180.593 150.625 180.182 150.625H168.725C168.314 150.625 167.907 150.713 167.527 150.883C167.148 151.054 166.803 151.305 166.512 151.62C166.221 151.936 165.991 152.311 165.833 152.723C165.676 153.136 165.595 153.578 165.595 154.024V186.249C165.595 186.695 165.676 187.137 165.833 187.55C165.991 187.962 166.221 188.337 166.512 188.653C166.803 188.968 167.148 189.219 167.527 189.389C167.907 189.56 168.314 189.648 168.725 189.648H180.182C180.593 189.648 181 189.56 181.379 189.389C181.759 189.219 182.104 188.968 182.395 188.653C182.685 188.337 182.916 187.962 183.073 187.55C183.231 187.137 183.312 186.695 183.312 186.249V164.079H183.509V159.898Z" fill="#E6E6E6"/>
<path d="M173.993 163.16C175.494 163.16 176.712 161.838 176.712 160.207C176.712 158.576 175.494 157.253 173.993 157.253C172.491 157.253 171.274 158.576 171.274 160.207C171.274 161.838 172.491 163.16 173.993 163.16Z" fill="#CE2B37"/>
<path d="M171.614 187.156C157.631 199.079 143.613 209.002 133.208 210.414L131.509 190.11C141.502 188.545 154.862 181.394 168.895 173.128L175.758 169.251C176.865 168.626 178.097 168.309 179.344 168.328C180.591 168.346 181.815 168.701 182.905 169.359C183.996 170.017 184.919 170.959 185.592 172.099C186.266 173.24 186.668 174.544 186.764 175.895C186.899 177.811 186.411 179.718 185.384 181.283C184.357 182.848 182.856 183.971 181.144 184.456L171.614 187.156Z" fill="#A0616A"/>
<path d="M145.104 210.783L117.234 211.522C107.857 191.539 104.454 170.215 106.359 147.7C106.359 145.294 106.896 142.924 107.924 140.793C108.952 138.662 110.44 136.833 112.261 135.464L115.195 133.257C127.741 153.486 135.522 172.272 132.868 187.895L141.025 187.156C135.743 194.9 138.188 202.797 145.104 210.783Z" fill="#CE2B37"/>
<path d="M24.5167 297.98C24.5167 297.98 25.9566 264.341 55.4743 268.251L24.5167 297.98Z" fill="#E6E6E6"/>
<path d="M24.1701 411.967C24.1331 411.615 20.6491 376.563 34.7561 358.012C39.9625 351.165 46.9388 347.331 55.491 346.617L55.5851 347.938C47.3767 348.624 40.6857 352.297 35.6986 358.853C21.9217 376.967 25.3461 411.471 25.3819 411.817L24.1701 411.967Z" fill="#E6E6E6"/>
<path d="M24.2052 263.586H22.9774V410.965H24.2052V263.586Z" fill="#E6E6E6"/>
<path d="M23.7633 265.272C29.3299 265.272 33.8426 260.37 33.8426 254.324C33.8426 248.277 29.3299 243.376 23.7633 243.376C18.1967 243.376 13.6841 248.277 13.6841 254.324C13.6841 260.37 18.1967 265.272 23.7633 265.272Z" fill="#CE2B37"/>
<path d="M55.5381 358.156C61.0695 358.156 65.5536 353.286 65.5536 347.277C65.5536 341.269 61.0695 336.398 55.5381 336.398C50.0067 336.398 45.5226 341.269 45.5226 347.277C45.5226 353.286 50.0067 358.156 55.5381 358.156Z" fill="#E6E6E6"/>
<path d="M349.675 53.6422C346.364 53.6422 343.128 54.7085 340.375 56.7064C337.623 58.7043 335.477 61.544 334.21 64.8664C332.943 68.1888 332.612 71.8446 333.258 75.3716C333.904 78.8987 335.498 82.1384 337.839 84.6813C340.18 87.2241 343.163 88.9558 346.41 89.6573C349.657 90.3589 353.022 89.9988 356.081 88.6226C359.14 87.2465 361.754 84.916 363.593 81.9259C365.433 78.9359 366.414 75.4205 366.414 71.8244C366.414 69.4367 365.981 67.0723 365.14 64.8663C364.299 62.6604 363.066 60.656 361.511 58.9676C359.957 57.2792 358.112 55.9399 356.081 55.0262C354.05 54.1124 351.873 53.6421 349.675 53.6422ZM357.386 73.5966C357.213 73.5966 356.639 73.5911 356.471 73.5801L353.173 73.4862C353.156 73.4857 353.139 73.4901 353.124 73.4988C353.108 73.5075 353.096 73.5203 353.086 73.5359L348.136 81.5744C348.062 81.6999 347.961 81.8031 347.841 81.8745C347.721 81.946 347.586 81.9833 347.45 81.9829H346.245C345.96 81.9829 345.864 81.6737 345.965 81.3867L348.512 73.4972C348.518 73.4809 348.52 73.4632 348.518 73.4457C348.516 73.4283 348.511 73.4115 348.502 73.3969C348.493 73.3823 348.481 73.3702 348.467 73.3617C348.452 73.3533 348.437 73.3486 348.42 73.3482L342.235 73.1991C342.17 73.1975 342.107 73.2122 342.048 73.2419C341.99 73.2716 341.939 73.3155 341.899 73.3703L339.983 75.8933C339.906 75.998 339.809 76.0826 339.698 76.1409C339.587 76.1992 339.466 76.2296 339.343 76.2301H338.494C338.461 76.2304 338.429 76.2223 338.4 76.2063C338.371 76.1904 338.346 76.167 338.327 76.1383C338.308 76.1096 338.296 76.0764 338.291 76.0414C338.287 76.0065 338.29 75.9708 338.301 75.9375L339.312 72.1446C339.388 71.9334 339.388 71.6988 339.312 71.4876L338.301 67.6947C338.29 67.6614 338.287 67.6257 338.291 67.5908C338.296 67.5558 338.308 67.5226 338.327 67.4939C338.346 67.4652 338.371 67.4418 338.4 67.4259C338.429 67.4099 338.461 67.4018 338.494 67.4021H339.348C339.471 67.4013 339.593 67.4313 339.704 67.4897C339.815 67.548 339.912 67.6333 339.988 67.7389L341.869 70.2233C341.908 70.2785 341.959 70.3227 342.018 70.3524C342.076 70.3822 342.14 70.3966 342.204 70.3944L348.425 70.2951C348.442 70.295 348.458 70.2906 348.472 70.2822C348.486 70.2738 348.499 70.2617 348.508 70.247C348.517 70.2322 348.522 70.2153 348.524 70.1977C348.526 70.1801 348.523 70.1624 348.517 70.146L345.97 62.2621C345.869 61.975 345.965 61.6658 346.25 61.6658H347.455C347.591 61.6661 347.726 61.7037 347.846 61.7751C347.966 61.8464 348.067 61.9494 348.141 62.0744L353.086 70.1184C353.095 70.1345 353.108 70.1476 353.123 70.1564C353.138 70.1651 353.156 70.1692 353.173 70.1681L356.471 70.0742C356.634 70.0632 357.213 70.0576 357.386 70.0576C359.643 70.0576 361.061 70.8527 361.061 71.8299C361.061 72.807 359.638 73.5966 357.386 73.5966Z" fill="#3F3D56"/>
<path d="M392.154 70.9702H387.992V72.477H392.154V70.9702Z" fill="#3F3D56"/>
<path d="M538.684 72.477H530.543V70.9702H538.684V72.477ZM522.403 72.477H514.262V70.9702H522.403L522.403 72.477ZM506.122 72.477H497.981V70.9702H506.122V72.477ZM489.841 72.477H481.7V70.9702H489.841V72.477ZM473.559 72.477H465.418V70.9702H473.559V72.477ZM457.278 72.477H449.137V70.9702H457.278V72.477ZM440.997 72.477H432.856V70.9702H440.997V72.477ZM424.716 72.477H416.575V70.9702H424.716V72.477ZM408.435 72.477H400.294V70.9702H408.435V72.477Z" fill="#3F3D56"/>
<path d="M550.986 70.9702H546.825V72.477H550.986V70.9702Z" fill="#3F3D56"/>
<path d="M392.154 122.954H387.992V124.461H392.154V122.954Z" fill="#3F3D56"/>
<path d="M538.684 124.461H530.543V122.954H538.684V124.461ZM522.403 124.461H514.262V122.954H522.403L522.403 124.461ZM506.122 124.461H497.981V122.954H506.122V124.461ZM489.841 124.461H481.7V122.954H489.841V124.461ZM473.559 124.461H465.418V122.954H473.559V124.461ZM457.278 124.461H449.137V122.954H457.278V124.461ZM440.997 124.461H432.856V122.954H440.997V124.461ZM424.716 124.461H416.575V122.954H424.716V124.461ZM408.435 124.461H400.294V122.954H408.435V124.461Z" fill="#3F3D56"/>
<path d="M550.986 122.954H546.825V124.461H550.986V122.954Z" fill="#3F3D56"/>
<path d="M392.154 174.938H387.992V176.445H392.154V174.938Z" fill="#3F3D56"/>
<path d="M538.684 176.445H530.543V174.938H538.684V176.445ZM522.403 176.445H514.262V174.938H522.403L522.403 176.445ZM506.122 176.445H497.981V174.938H506.122V176.445ZM489.841 176.445H481.7V174.938H489.841V176.445ZM473.559 176.445H465.418V174.938H473.559V176.445ZM457.278 176.445H449.137V174.938H457.278V176.445ZM440.997 176.445H432.856V174.938H440.997V176.445ZM424.716 176.445H416.575V174.938H424.716V176.445ZM408.435 176.445H400.294V174.938H408.435V176.445Z" fill="#3F3D56"/>
<path d="M550.986 174.938H546.825V176.445H550.986V174.938Z" fill="#3F3D56"/>
<path d="M349.375 106.38C346.175 106.38 343.048 107.41 340.388 109.341C337.727 111.272 335.654 114.016 334.43 117.227C333.205 120.437 332.885 123.97 333.509 127.379C334.133 130.787 335.674 133.918 337.936 136.376C340.199 138.833 343.081 140.507 346.219 141.185C349.357 141.863 352.61 141.515 355.565 140.185C358.521 138.855 361.048 136.603 362.825 133.713C364.603 130.823 365.551 127.426 365.551 123.951C365.551 119.291 363.847 114.821 360.813 111.526C357.78 108.231 353.665 106.38 349.375 106.38ZM341.811 123.353L342.705 118.189C342.935 116.785 343.535 115.681 344.659 115.681H346.349L346.447 115.26C346.533 114.892 346.73 114.566 347.006 114.333C347.281 114.1 347.621 113.974 347.97 113.974H350.77C351.119 113.974 351.457 114.099 351.733 114.331C352.009 114.563 352.205 114.888 352.293 115.254L352.391 115.681H354.09C355.191 115.681 355.775 116.764 356.05 118.183V118.189L356.949 123.359C356.956 123.397 356.953 123.437 356.941 123.474C356.928 123.511 356.907 123.544 356.878 123.568C356.85 123.592 356.815 123.608 356.779 123.612C356.743 123.617 356.707 123.61 356.674 123.593L355.426 122.969C355.397 122.956 355.371 122.935 355.351 122.908C355.332 122.881 355.319 122.849 355.313 122.815L354.518 118.247C354.37 117.661 354.164 117.394 353.727 117.394H345.028C344.596 117.394 344.36 117.677 344.237 118.247L343.441 122.814C343.435 122.848 343.422 122.88 343.402 122.907C343.383 122.934 343.357 122.955 343.328 122.969L342.086 123.588C342.053 123.604 342.016 123.61 341.981 123.606C341.945 123.601 341.911 123.586 341.882 123.561C341.854 123.537 341.832 123.505 341.82 123.468C341.807 123.432 341.804 123.392 341.811 123.353L341.811 123.353ZM359.135 126.677L356.448 133.928C355.439 133.819 354.476 133.413 353.663 132.754C352.426 133.324 351.109 133.66 349.768 133.747C349.63 133.752 349.498 133.757 349.375 133.757C349.252 133.757 349.12 133.757 348.982 133.747C347.641 133.657 346.324 133.322 345.087 132.754C344.274 133.413 343.311 133.819 342.302 133.928L339.615 126.677C339.574 126.563 339.552 126.442 339.551 126.32C339.551 126.136 339.6 125.956 339.691 125.8C339.783 125.645 339.913 125.522 340.067 125.445L349.208 120.883C349.259 120.857 349.316 120.843 349.372 120.843C349.429 120.843 349.486 120.857 349.537 120.883L358.683 125.445C358.837 125.522 358.967 125.645 359.059 125.8C359.15 125.955 359.199 126.136 359.199 126.32C359.198 126.442 359.176 126.563 359.135 126.677Z" fill="#3F3D56"/>
<path d="M355.205 171.468H350.339C350.287 171.468 350.236 171.491 350.199 171.531C350.162 171.572 350.141 171.627 350.141 171.684V179.234C350.141 179.291 350.162 179.346 350.199 179.386C350.236 179.427 350.287 179.45 350.339 179.45H355.205C355.416 179.449 355.617 179.358 355.766 179.196C355.915 179.035 355.999 178.815 355.999 178.587V172.331C355.999 172.102 355.915 171.883 355.766 171.722C355.617 171.56 355.416 171.469 355.205 171.468Z" fill="#3F3D56"/>
<path d="M354.113 181.068C353.805 181.094 353.519 181.249 353.313 181.5C353.108 181.751 353.001 182.078 353.013 182.413C353.025 182.748 353.156 183.065 353.379 183.298C353.602 183.53 353.898 183.66 354.207 183.66C354.516 183.66 354.813 183.53 355.036 183.298C355.258 183.065 355.389 182.748 355.402 182.413C355.414 182.078 355.306 181.751 355.101 181.5C354.896 181.249 354.609 181.094 354.302 181.068C354.239 181.062 354.176 181.062 354.113 181.068Z" fill="#3F3D56"/>
<path d="M344.585 181.068C344.277 181.094 343.991 181.249 343.786 181.5C343.581 181.751 343.473 182.078 343.485 182.413C343.497 182.748 343.628 183.065 343.851 183.298C344.074 183.53 344.371 183.66 344.679 183.66C344.988 183.66 345.285 183.53 345.508 183.298C345.73 183.065 345.862 182.748 345.874 182.413C345.886 182.078 345.778 181.751 345.573 181.5C345.368 181.249 345.082 181.094 344.774 181.068C344.711 181.062 344.648 181.062 344.585 181.068Z" fill="#3F3D56"/>
<path d="M348.552 171.468H343.696C343.483 171.469 343.279 171.561 343.128 171.725C342.978 171.889 342.893 172.11 342.892 172.342V178.576C342.893 178.807 342.978 179.029 343.128 179.193C343.279 179.357 343.483 179.449 343.696 179.45H348.552C348.605 179.45 348.655 179.427 348.692 179.386C348.73 179.346 348.751 179.291 348.751 179.234V171.684C348.751 171.627 348.73 171.572 348.692 171.531C348.655 171.491 348.605 171.468 348.552 171.468Z" fill="#3F3D56"/>
<path d="M349.446 158.453C346.212 158.453 343.05 159.494 340.361 161.446C337.672 163.398 335.577 166.172 334.339 169.417C333.101 172.662 332.778 176.234 333.409 179.679C334.04 183.124 335.597 186.289 337.884 188.773C340.17 191.257 343.084 192.948 346.256 193.634C349.428 194.319 352.715 193.967 355.703 192.623C358.691 191.279 361.245 189.002 363.041 186.081C364.838 183.161 365.797 179.727 365.797 176.214C365.797 171.503 364.074 166.986 361.008 163.655C357.941 160.324 353.782 158.453 349.446 158.453ZM357.39 183.441C357.388 184.012 357.178 184.56 356.806 184.964C356.434 185.368 355.93 185.596 355.404 185.598H343.488C342.962 185.596 342.457 185.368 342.085 184.964C341.713 184.56 341.503 184.012 341.502 183.441V168.556C341.503 168.099 341.671 167.66 341.968 167.337C342.266 167.014 342.67 166.831 343.091 166.83H355.801C356.222 166.831 356.625 167.014 356.923 167.337C357.221 167.66 357.388 168.099 357.39 168.556V183.441Z" fill="#3F3D56"/>
<path d="M355.255 168.34H343.637C343.541 168.333 343.446 168.347 343.356 168.382C343.266 168.417 343.183 168.471 343.113 168.542C343.044 168.613 342.988 168.698 342.95 168.793C342.912 168.889 342.892 168.991 342.892 169.095C342.892 169.199 342.912 169.302 342.95 169.397C342.988 169.492 343.044 169.578 343.113 169.648C343.183 169.719 343.266 169.774 343.356 169.808C343.446 169.843 343.541 169.857 343.637 169.85H355.255C355.35 169.857 355.446 169.843 355.536 169.808C355.626 169.774 355.708 169.719 355.778 169.648C355.848 169.578 355.904 169.492 355.942 169.397C355.98 169.302 356 169.199 356 169.095C356 168.991 355.98 168.889 355.942 168.793C355.904 168.698 355.848 168.613 355.778 168.542C355.708 168.471 355.626 168.417 355.536 168.382C355.446 168.347 355.35 168.333 355.255 168.34Z" fill="#3F3D56"/>
<path d="M575.262 83.0245C573.205 83.0245 571.193 82.3617 569.482 81.12C567.771 79.8782 566.438 78.1132 565.65 76.0483C564.863 73.9833 564.657 71.7111 565.058 69.5189C565.46 67.3267 566.451 65.3131 567.906 63.7327C569.361 62.1522 571.214 61.0759 573.233 60.6398C575.251 60.2038 577.343 60.4276 579.244 61.2829C581.145 62.1383 582.77 63.5867 583.913 65.4452C585.056 67.3036 585.666 69.4885 585.666 71.7236C585.663 74.7198 584.566 77.5923 582.616 79.7109C580.665 81.8295 578.021 83.0212 575.262 83.0245ZM575.262 61.9295C573.479 61.9295 571.736 62.5039 570.253 63.5801C568.77 64.6563 567.614 66.1859 566.932 67.9756C566.249 69.7652 566.071 71.7345 566.419 73.6343C566.767 75.5342 567.625 77.2794 568.886 78.6491C570.147 80.0188 571.754 80.9516 573.503 81.3295C575.252 81.7074 577.065 81.5135 578.713 80.7722C580.36 80.0309 581.769 78.7756 582.759 77.1649C583.75 75.5543 584.279 73.6607 584.279 71.7236C584.276 69.127 583.325 66.6375 581.635 64.8014C579.945 62.9653 577.653 61.9324 575.262 61.9295Z" fill="#CE2B37"/>
<path d="M579.221 68.4895L578.24 67.4242L575.262 70.6585L572.285 67.4242L571.304 68.4895L574.281 71.7238L571.304 74.9581L572.285 76.0234L575.262 72.7891L578.24 76.0234L579.221 74.9581L576.243 71.7238L579.221 68.4895Z" fill="#CE2B37"/>
<path d="M575.262 135.009C573.205 135.009 571.193 134.346 569.482 133.104C567.771 131.862 566.438 130.097 565.65 128.032C564.863 125.967 564.657 123.695 565.058 121.503C565.46 119.311 566.451 117.297 567.906 115.717C569.361 114.136 571.214 113.06 573.233 112.624C575.251 112.188 577.343 112.412 579.244 113.267C581.145 114.122 582.77 115.571 583.913 117.429C585.056 119.288 585.666 121.473 585.666 123.708C585.663 126.704 584.566 129.576 582.616 131.695C580.665 133.814 578.021 135.005 575.262 135.009ZM575.262 113.914C573.479 113.914 571.736 114.488 570.253 115.564C568.77 116.64 567.614 118.17 566.932 119.96C566.249 121.749 566.071 123.719 566.419 125.618C566.767 127.518 567.625 129.263 568.886 130.633C570.147 132.003 571.754 132.936 573.503 133.314C575.252 133.692 577.065 133.498 578.713 132.756C580.36 132.015 581.769 130.76 582.759 129.149C583.75 127.538 584.279 125.645 584.279 123.708C584.276 121.111 583.325 118.622 581.635 116.785C579.945 114.949 577.653 113.917 575.262 113.914Z" fill="#CE2B37"/>
<path d="M579.221 120.474L578.24 119.408L575.262 122.643L572.285 119.408L571.304 120.474L574.281 123.708L571.304 126.942L572.285 128.008L575.262 124.773L578.24 128.008L579.221 126.942L576.243 123.708L579.221 120.474Z" fill="#CE2B37"/>
<path d="M575.262 186.993C573.205 186.993 571.193 186.33 569.482 185.088C567.771 183.846 566.438 182.081 565.65 180.017C564.863 177.952 564.657 175.679 565.058 173.487C565.46 171.295 566.451 169.281 567.906 167.701C569.361 166.12 571.214 165.044 573.233 164.608C575.251 164.172 577.343 164.396 579.244 165.251C581.145 166.106 582.77 167.555 583.913 169.413C585.056 171.272 585.666 173.457 585.666 175.692C585.663 178.688 584.566 181.561 582.616 183.679C580.665 185.798 578.021 186.989 575.262 186.993ZM575.262 165.898C573.479 165.898 571.736 166.472 570.253 167.548C568.77 168.625 567.614 170.154 566.932 171.944C566.249 173.733 566.071 175.703 566.419 177.603C566.767 179.502 567.625 181.248 568.886 182.617C570.147 183.987 571.754 184.92 573.503 185.298C575.252 185.676 577.065 185.482 578.713 184.74C580.36 183.999 581.769 182.744 582.759 181.133C583.75 179.523 584.279 177.629 584.279 175.692C584.276 173.095 583.325 170.606 581.635 168.77C579.945 166.933 577.653 165.901 575.262 165.898Z" fill="#CE2B37"/>
<path d="M579.221 172.458L578.24 171.392L575.262 174.627L572.285 171.392L571.304 172.458L574.281 175.692L571.304 178.926L572.285 179.992L575.262 176.757L578.24 179.992L579.221 178.926L576.243 175.692L579.221 172.458Z" fill="#CE2B37"/>
</g>
<defs>
<clipPath id="clip0_38_80">
<rect width="618" height="421" fill="white"/>
</clipPath>
</defs>
</svg>
