<svg width="408" height="520" viewBox="0 0 408 520" fill="none" xmlns="http://www.w3.org/2000/svg">
<g clip-path="url(#clip0_38_0)">
<path d="M247.33 52.3542C230.528 52.3542 216.907 41.8888 216.907 28.9791C216.907 16.0694 230.528 5.60397 247.33 5.60397C264.132 5.60397 277.753 16.0694 277.753 28.9791C277.753 41.8888 264.132 52.3542 247.33 52.3542Z" fill="#3F3D56"/>
<path d="M186.485 151.247C162.29 151.247 142.675 131.926 142.675 108.092C142.675 84.258 162.29 64.9367 186.485 64.9367C210.68 64.9367 230.294 84.258 230.294 108.092C230.294 131.926 210.68 151.247 186.485 151.247Z" fill="#3F3D56"/>
<path d="M47.4588 501.579C41.4121 501.579 36.5103 496.751 36.5103 490.794C36.5103 484.838 41.4121 480.009 47.4588 480.009C53.5055 480.009 58.4073 484.838 58.4073 490.794C58.4073 496.751 53.5055 501.579 47.4588 501.579Z" fill="#3F3D56"/>
<path d="M104.647 501.579C98.6004 501.579 93.6985 496.751 93.6985 490.794C93.6985 484.838 98.6004 480.009 104.647 480.009C110.694 480.009 115.596 484.838 115.596 490.794C115.596 496.751 110.694 501.579 104.647 501.579Z" fill="#3F3D56"/>
<path d="M87.6109 230.67H92.4795V363.134H87.6109V230.67Z" fill="#3F3D56"/>
<path d="M61.4511 230.67H66.3197V363.134H61.4511V230.67Z" fill="#3F3D56"/>
<path d="M91.2911 234.265L92.5102 230.67C92.5102 230.67 79.1236 215.089 60.2628 227.649L61.4818 233.049H66.3503C66.3503 233.049 74.255 226.516 87.6416 233.978L91.2911 234.265Z" fill="#3F3D56"/>
<path d="M173.098 211.788H216.907V266.929H173.098V211.788Z" fill="#FBBEBE"/>
<path d="M142.675 196.2H156.062V222.573H142.675V196.2Z" fill="#FBBEBE"/>
<path d="M211.127 480.009L216.601 496.194C216.601 496.194 219.039 508.18 211.127 508.777C203.214 509.374 190.426 506.979 190.426 506.979C190.426 506.979 188.601 501.587 190.426 496.791C192.25 491.995 197.725 478.808 197.725 478.808L211.127 480.009Z" fill="#3C354C"/>
<path d="M169.755 480.606C169.755 480.606 178.273 501.587 171.58 505.182C164.887 508.777 155.755 505.779 148.456 508.777C141.157 511.775 121.077 504.585 121.077 504.585C121.077 504.585 118.639 497.992 132.026 496.194C132.026 496.194 146.593 485.402 146.593 483.008C146.593 480.614 155.111 480.606 155.111 480.606H169.755Z" fill="#3C354C"/>
<path d="M171.58 241.462C171.58 241.462 221.469 251.651 227.549 248.652C233.629 245.654 239.717 289.436 239.717 289.436C239.717 289.436 242.155 315.81 233.637 351.171C225.119 386.532 233.637 403.917 233.637 403.917C233.637 403.917 232.418 437.481 223.286 453.069C214.155 468.658 214.163 483.038 214.163 483.038C214.163 483.038 196.528 484.835 195.907 480.636C195.907 480.636 203.214 463.855 201.995 448.274C200.776 432.693 205.645 402.717 205.645 402.717C205.645 402.717 197.732 364.954 198.951 350.604C200.17 336.254 194.688 305.651 191.652 311.044C188.616 316.436 180.696 342.81 180.696 348.21C180.696 353.61 177.629 389.56 175.828 391.962C174.026 394.364 174.616 401.554 175.222 405.149C175.828 408.744 175.828 435.714 172.791 450.101C169.755 464.489 172.178 480.666 171.572 483.068C170.967 485.47 153.317 483.665 152.712 479.466C152.712 479.466 150.273 453.696 149.054 450.101C147.835 446.506 147.26 400.889 147.26 400.889C147.26 400.889 146.049 365.528 144.83 361.933C143.611 358.338 141.763 281.015 149.698 272.058C157.634 263.1 154.567 240.292 154.567 240.292L171.58 241.462Z" fill="#3F3D56"/>
<path d="M212.591 137.048C214.845 141.232 217.114 145.454 218.525 149.993C219.936 154.533 220.427 159.449 219.1 164.011C218.151 166.86 216.832 169.577 215.175 172.092C213.857 174.496 212.185 176.695 210.214 178.618C205.614 182.756 198.928 183.587 192.718 184.237C191.653 184.412 190.564 184.394 189.505 184.184C188.656 183.941 187.871 183.518 187.205 182.945C184.484 180.679 183.249 177.22 182.253 173.882C179.882 165.943 178.184 157.824 177.177 149.608C176.943 148.309 176.943 146.98 177.177 145.681C177.714 143.415 179.554 141.655 180.888 139.707C182.486 137.378 183.398 134.66 183.525 131.852C183.579 130.485 183.525 128.975 184.399 127.932C184.981 127.365 185.686 126.936 186.462 126.679C190.088 125.168 193.707 123.658 197.341 122.208C199.534 121.316 203.475 118.945 205.775 120.697C207.745 122.208 206.795 125.712 207.638 127.812C208.934 130.999 210.965 134.027 212.591 137.048Z" fill="#FBBEBE"/>
<path opacity="0.1" d="M212.591 137.048C214.845 141.232 217.114 145.454 218.525 149.993C219.936 154.533 220.427 159.449 219.1 164.011C218.151 166.86 216.832 169.577 215.175 172.092C213.857 174.496 212.185 176.695 210.214 178.618C205.614 182.756 198.928 183.587 192.718 184.237C191.653 184.412 190.564 184.394 189.505 184.184C188.656 183.941 187.871 183.518 187.205 182.945C184.484 180.679 183.249 177.22 182.253 173.882C179.882 165.943 178.184 157.824 177.177 149.608C176.943 148.309 176.943 146.98 177.177 145.681C177.714 143.415 179.554 141.655 180.888 139.707C182.486 137.378 183.398 134.66 183.525 131.852C183.579 130.485 183.525 128.975 184.399 127.932C184.981 127.365 185.686 126.936 186.462 126.679C190.088 125.168 193.707 123.658 197.341 122.208C199.534 121.316 203.475 118.945 205.775 120.697C207.745 122.208 206.795 125.712 207.638 127.812C208.934 130.999 210.965 134.027 212.591 137.048Z" fill="black"/>
<path d="M188.616 138.37C176.853 138.37 167.317 128.977 167.317 117.389C167.317 105.802 176.853 96.4082 188.616 96.4082C200.379 96.4082 209.915 105.802 209.915 117.389C209.915 128.977 200.379 138.37 188.616 138.37Z" fill="#FBBEBE"/>
<path d="M181.141 170.302C185.174 171.73 189.337 172.961 193.623 173.112C196.833 173.143 200.037 172.806 203.168 172.107C209.638 170.84 215.992 169.054 222.167 166.768C223.486 169.328 223.838 172.251 223.953 175.121C224.283 183.799 222.527 192.409 221.853 201.071C221.002 212.083 221.853 223.336 218.977 234C218.811 232.188 218.096 230.467 216.923 229.061C215.945 228.024 214.777 227.178 213.48 226.569C207.678 223.614 200.996 222.794 194.635 224.258C190.947 225.119 187.029 226.727 183.533 225.285C181.447 224.416 179.937 222.588 178.779 220.67C176.814 217.209 175.412 213.465 174.624 209.575C172.324 199.576 172.017 189.236 171.741 178.98C171.664 176.239 170.468 168.089 172.776 166.08C174.394 164.683 174.869 166.677 176.035 167.719C177.551 168.898 179.285 169.775 181.141 170.302Z" fill="#F2F2F2"/>
<path d="M211.119 134.284C212.537 133.189 214.638 133.529 216.202 134.458C217.766 135.387 219.031 136.671 220.618 137.517C225.019 139.865 230.93 138.143 235.109 140.878C239.034 143.453 239.709 148.755 240.016 153.392C240.782 165.174 241.442 177.039 244.317 188.504C245.084 191.525 246.004 194.621 245.712 197.733C245.483 199.511 245.056 201.258 244.44 202.944L240.668 214.553C238.919 219.945 237.148 225.421 236.964 231.078C236.78 236.734 238.13 242.112 239.471 247.512C242.123 258.15 243.849 268.992 244.631 279.92C244.869 283.537 244.969 287.314 243.481 290.629C241.948 294.096 238.835 296.671 235.554 298.627C232.272 300.584 228.707 302.094 225.494 304.171C219.047 308.348 213.871 314.926 206.327 316.64C202.869 317.395 199.25 317.093 195.77 316.429C195.77 316.429 197.74 228.276 203.222 215.685C208.704 203.095 213.565 148.558 213.565 146.761C213.565 144.963 211.119 134.284 211.119 134.284Z" fill="#CE2B37"/>
<path d="M181.509 137.169C181.509 137.169 152.719 137.169 148.456 152.153C144.194 167.138 160.624 191.714 160.624 191.714C160.624 191.714 153.931 240.261 150.895 245.057C147.858 249.853 149.062 259.407 149.062 259.407C146.858 265.984 146.44 273.014 147.851 279.799C150.281 290.584 159.413 309.767 159.413 309.767C159.413 309.767 171.58 309.767 174.624 316.957C177.668 324.147 178.273 285.788 178.273 285.788C178.273 285.788 189.222 215.663 188.616 211.471C188.011 207.279 184.967 172.508 183.748 162.916C182.529 153.324 179.876 140.764 181.509 137.169Z" fill="#CE2B37"/>
<path d="M159.413 146.761C159.413 146.761 145.413 150.953 145.413 155.749C145.413 160.544 141.127 186.314 141.127 194.705C141.127 203.095 142.951 204.296 141.127 207.295C139.302 210.293 160.593 209.092 160.593 209.092L164.465 174.932L159.413 146.761Z" fill="#CE2B37"/>
<path d="M242.163 189.916C242.163 189.916 214.776 191.714 209.907 188.111C205.039 184.509 184.353 192.907 182.529 197.703C180.704 202.499 211.74 203.095 216.601 203.095C221.462 203.095 244.593 210.293 244.593 210.293L242.163 189.916Z" fill="#A0616A"/>
<path d="M298.538 469.111C298.538 469.111 311.304 500.832 304.672 504.608C298.04 508.384 228.109 505.695 228.109 505.695C228.109 505.695 216.463 498.596 229.773 493.672C229.773 493.672 240.874 493.128 248.081 488.755C255.288 484.382 263.623 476.188 263.623 476.188C263.623 476.188 264.175 464.164 268.614 466.898C269.942 467.76 271.072 468.885 271.931 470.203C272.791 471.521 273.361 473.001 273.605 474.549L298.538 469.111Z" fill="#3F3D56"/>
<path opacity="0.1" d="M298.538 469.111C298.538 469.111 311.304 500.832 304.672 504.608C298.04 508.384 228.109 505.695 228.109 505.695C228.109 505.695 216.463 498.596 229.773 493.672C229.773 493.672 240.874 493.128 248.081 488.755C255.288 484.382 263.623 476.188 263.623 476.188C263.623 476.188 264.175 464.164 268.614 466.898C269.942 467.76 271.072 468.885 271.931 470.203C272.791 471.521 273.361 473.001 273.605 474.549L298.538 469.111Z" fill="black"/>
<path d="M318.235 478.808C318.235 478.808 332.227 513.55 324.928 517.764C317.629 521.979 240.959 518.965 240.959 518.965C240.959 518.965 228.178 511.179 242.784 505.779C242.784 505.779 254.951 505.182 262.863 500.386C270.776 495.59 279.9 486.58 279.9 486.58C279.9 486.58 280.505 473.393 285.374 476.392C286.831 477.336 288.071 478.57 289.013 480.016C289.956 481.461 290.581 483.085 290.848 484.782L318.235 478.808Z" fill="#3F3D56"/>
<path d="M246.418 258.244L254.936 333.769C254.936 333.769 258.003 369.735 267.103 377.521C267.103 377.521 267.103 388.911 270.17 392.506L274.433 439.86C274.433 439.86 268.345 457.231 268.951 460.252C269.557 463.273 266.521 472.834 267.126 474.035C267.732 475.236 296.338 474.035 296.338 474.035L290.25 377.536L271.389 243.282L246.418 258.244Z" fill="#3C354C"/>
<path opacity="0.1" d="M246.418 258.244L254.936 333.769C254.936 333.769 258.003 369.735 267.103 377.521C267.103 377.521 267.103 388.911 270.17 392.506L274.433 439.86C274.433 439.86 268.345 457.231 268.951 460.252C269.557 463.273 266.521 472.834 267.126 474.035C267.732 475.236 296.338 474.035 296.338 474.035L290.25 377.536L271.389 243.282L246.418 258.244Z" fill="black"/>
<path d="M261.629 255.842C261.629 255.842 268.322 317.577 271.366 330.764C273.28 339.447 274.5 348.265 275.016 357.137C275.016 357.137 275.621 376.32 281.103 381.713C282.703 383.274 283.96 385.142 284.796 387.201C285.632 389.26 286.03 391.467 285.964 393.684C285.964 393.684 291.446 454.217 288.402 461.415C285.358 468.612 282.315 474.602 285.335 479.39C288.356 484.178 321.846 484.186 321.846 480.591C321.846 476.996 321.846 473.997 323.671 472.2C325.495 470.402 323.671 459.013 323.671 459.013C323.671 459.013 330.97 405.67 324.276 390.089C317.583 374.508 314.539 331.934 314.539 331.934C314.539 331.934 319.408 283.386 325.495 275.592C331.583 267.798 324.276 240.231 324.276 240.231L261.629 255.842Z" fill="#3C354C"/>
<path d="M278.757 64.1286C278.052 65.7147 276.357 66.5983 274.816 67.4366C265.884 72.2854 258.409 79.3168 251.049 86.2651C252.886 80.1259 252.493 73.5477 249.937 67.6632C249.063 65.6618 247.905 63.5018 248.534 61.4097C249.002 59.8992 250.328 58.7512 251.601 57.7694C254.606 55.4798 257.747 53.3689 261.008 51.4479C263.308 50.1036 267.97 46.5312 270.584 46.9164C270.722 50.3981 270.791 53.5098 272.34 56.7347C272.723 57.5353 278.489 64.7328 278.757 64.1286Z" fill="#A0616A"/>
<path d="M247.637 71.8322C233.858 71.8322 222.688 60.8292 222.688 47.2563C222.688 33.6833 233.858 22.6803 247.637 22.6803C261.415 22.6803 272.585 33.6833 272.585 47.2563C272.585 60.8292 261.415 71.8322 247.637 71.8322Z" fill="#A0616A"/>
<path d="M246.418 105.403C246.418 105.403 242.163 84.4223 254.33 77.2323C266.498 70.0423 280.49 61.6514 280.49 61.6514C280.49 61.6514 284.753 61.0472 286.578 70.0423C286.578 70.0423 321.255 76.6356 324.913 108.998C328.57 141.361 322.474 188.715 322.474 188.715C322.474 188.715 327.949 230.073 334.642 252.247C334.642 252.247 340.124 257.043 315.781 249.853C291.438 242.663 248.856 270.245 248.856 270.245C248.856 270.245 244.593 266.046 244.593 263.047C244.593 260.049 239.724 242.656 239.724 242.656C239.724 242.656 235.469 168.935 233.644 160.544C231.82 152.153 240.944 106.604 246.418 105.403Z" fill="#3F3D56"/>
<path d="M284.139 146.761C284.139 146.761 250.681 127.578 257.374 103.002C264.067 78.4256 278.665 70.6389 278.665 70.6389C278.665 70.6389 302.395 62.8447 322.474 88.0098L321.255 99.399C321.255 99.399 299.351 55.6471 275.621 83.2139C251.892 110.781 284.139 146.761 284.139 146.761Z" fill="#CE2B37"/>
<path d="M320.044 89.2182V187.499L326.262 221.025L329.168 236.651H350.436L380.245 225.859V153.354C380.245 153.354 355.305 104.799 347.392 95.8116C339.48 86.824 320.044 89.2182 320.044 89.2182Z" fill="#CE2B37"/>
<path opacity="0.1" d="M326.27 221.033L329.168 236.659H350.467L380.276 225.874L326.27 221.033Z" fill="black"/>
<path d="M327.343 200.097L275.016 137.162L321.263 202.499L326.132 203.692L327.343 200.097Z" fill="#CE2B37"/>
<path d="M253.517 49.7936C252.099 48.8495 250.32 48.6758 248.618 48.5096C246.916 48.3435 245.137 48.1169 243.78 47.0897C241.427 45.3073 241.25 41.8634 239.525 39.4843C237.033 36.0328 232.057 35.6174 227.756 35.7836C225.126 35.8893 222.297 36.0479 220.089 34.6507C217.881 33.2535 216.792 30.4968 216.026 27.9516C215.113 24.9306 214.531 21.245 216.792 19.0094C218.326 17.4536 220.81 17.1439 222.543 15.7769C224.275 14.4099 225.08 12.0611 226.054 10.0143C227.166 7.51403 228.924 5.34475 231.153 3.72305C234.419 1.45729 238.59 0.989032 242.569 1.02679C246.548 1.06456 250.543 1.58568 254.491 1.10232C257.727 0.709586 260.954 -0.347766 264.175 0.120492C268.284 0.717142 271.681 3.77592 273.712 7.34827C275.744 10.9206 276.603 14.999 277.446 19.0018L279.746 29.9002C280.452 33.2837 281.165 36.7503 280.62 40.1565C279.486 47.2257 273.137 52.8448 272.7 59.9819C272.283 58.0102 271.375 56.1713 270.058 54.6303C268.742 53.0894 267.057 51.8945 265.156 51.153C264.68 50.9241 264.141 50.8577 263.623 50.9642C262.994 51.1681 262.626 51.7874 262.227 52.3086C261.184 53.6756 257.911 55.745 256.093 54.7782C254.361 53.9097 255.603 51.1908 253.517 49.7936Z" fill="#3F3D56"/>
<path d="M94.3042 354.743C94.3042 354.743 110.735 355.34 113.165 373.919C115.596 392.498 113.165 478.808 113.165 478.808C113.165 478.808 94.3042 492.592 71.1805 490.794C48.0568 488.997 10.9485 482.403 10.9485 482.403V381.199C10.9485 366.094 23.737 353.776 39.0557 354.645C39.4161 354.645 39.8224 354.69 40.1521 354.728L94.3042 354.743Z" fill="#3C354C"/>
<path d="M70.5748 504.578C64.5281 504.578 59.6263 499.749 59.6263 493.793C59.6263 487.836 64.5281 483.008 70.5748 483.008C76.6215 483.008 81.5233 487.836 81.5233 493.793C81.5233 499.749 76.6215 504.578 70.5748 504.578Z" fill="#3F3D56"/>
<path d="M10.9485 499.782C4.90183 499.782 0 494.953 0 488.997C0 483.04 4.90183 478.212 10.9485 478.212C16.9952 478.212 21.897 483.04 21.897 488.997C21.897 494.953 16.9952 499.782 10.9485 499.782Z" fill="#3F3D56"/>
<path d="M316.387 161.745C316.387 161.745 320.65 188.111 303.008 185.717C303.008 185.717 293.877 184.516 292.658 185.717C291.438 186.918 246.418 179.124 240.33 172.53C240.33 172.53 233.031 170.136 229.382 173.731C225.732 177.326 189.222 180.921 200.163 170.129C211.104 159.336 228.147 156.942 228.147 156.942L251.271 158.135C251.271 158.135 263.439 161.738 270.738 158.135C278.036 154.533 298.745 155.779 298.745 155.779L316.387 161.745Z" fill="#A0616A"/>
<path d="M291.446 78.4331C291.446 78.4331 318.825 81.4542 318.825 120.388V170.129C318.825 170.129 303.614 163.535 300.57 164.132C297.526 164.728 285.358 156.338 285.358 156.338C285.358 156.338 271.366 123.983 272.585 114.995C273.804 106.007 273.191 79.6264 291.446 78.4331Z" fill="#3F3D56"/>
<path d="M166.106 174.924L193.485 194.108L176.449 195.905L152.719 176.125L166.106 174.924Z" fill="#3F3D56"/>
<path d="M144.807 203.7C144.807 203.7 138.114 224.091 147.237 230.073C156.361 236.055 171.58 209.092 171.58 209.092C171.58 209.092 188.01 189.916 177.054 185.717C166.098 181.518 161.628 199.802 161.628 199.802L147.26 212.09L144.807 203.7Z" fill="#FBBEBE"/>
<path d="M186.485 117.087C173.045 117.087 162.15 110.243 162.15 101.801C162.15 93.3583 173.045 86.5143 186.485 86.5143C199.925 86.5143 210.82 93.3583 210.82 101.801C210.82 110.243 199.925 117.087 186.485 117.087Z" fill="#3F3D56"/>
<path d="M182.23 82.3227C172.486 82.3227 164.588 74.5421 164.588 64.9443C164.588 55.3465 172.486 47.5659 182.23 47.5659C191.973 47.5659 199.871 55.3465 199.871 64.9443C199.871 74.5421 191.973 82.3227 182.23 82.3227Z" fill="#3F3D56"/>
<path d="M247.637 43.9633C234.701 43.9633 224.214 38.5971 224.214 31.9775C224.214 25.3578 234.701 19.9916 247.637 19.9916C260.573 19.9916 271.06 25.3578 271.06 31.9775C271.06 38.5971 260.573 43.9633 247.637 43.9633Z" fill="#3F3D56"/>
<path d="M269.541 54.1517C265.006 54.1517 261.33 45.1606 261.33 34.0695C261.33 22.9784 265.006 13.9873 269.541 13.9873C274.076 13.9873 277.753 22.9784 277.753 34.0695C277.753 45.1606 274.076 54.1517 269.541 54.1517Z" fill="#3F3D56"/>
<path d="M391.769 508.135C389.469 503.973 392.076 498.876 395.05 495.16C398.025 491.444 401.659 487.607 401.583 482.857C401.468 476.059 394.146 472.049 388.296 468.446C383.954 465.773 379.949 462.601 376.366 458.998C374.862 457.614 373.621 455.978 372.701 454.165C371.49 451.506 371.52 448.485 371.597 445.57C371.853 435.872 372.341 426.185 373.061 416.508" stroke="#3F3D56" stroke-width="4" stroke-miterlimit="10"/>
<path d="M361.937 415.971C362.018 414.196 362.553 412.469 363.491 410.951C364.429 409.433 365.74 408.173 367.303 407.286L369.711 411.984L369.634 406.304C371.816 405.673 374.146 405.74 376.287 406.497C378.427 407.254 380.268 408.662 381.545 410.516C382.821 412.371 383.466 414.577 383.387 416.816C383.308 419.055 382.509 421.212 381.105 422.975C379.701 424.737 377.766 426.016 375.577 426.624C373.388 427.233 371.059 427.142 368.927 426.363C366.794 425.583 364.968 424.157 363.712 422.29C362.455 420.422 361.834 418.209 361.937 415.971Z" fill="#57B894"/>
<path d="M381.104 487.72C382.233 489.875 384.079 491.583 386.334 492.556C388.588 493.53 391.114 493.71 393.488 493.068C395.861 492.425 397.939 490.998 399.371 489.027C400.804 487.055 401.505 484.658 401.358 482.237C401.21 479.817 400.222 477.52 398.559 475.731C396.897 473.943 394.661 472.772 392.226 472.414C389.791 472.057 387.306 472.534 385.186 473.767C383.066 475 381.441 476.913 380.583 479.186L387.307 484.571L379.908 482.879C379.906 484.564 380.317 486.225 381.104 487.72Z" fill="#57B894"/>
<path d="M386.471 467.14C387.883 467.208 389.296 467 390.626 466.529C391.957 466.058 393.18 465.332 394.225 464.394C395.27 463.455 396.117 462.323 396.717 461.061C397.316 459.8 397.657 458.434 397.719 457.042C397.803 455.384 397.485 453.729 396.791 452.216C396.147 450.799 395.195 449.539 394.003 448.524C392.81 447.509 391.407 446.763 389.891 446.34L389.944 450.713L387.514 445.962C386.101 445.894 384.689 446.102 383.358 446.573C382.028 447.045 380.805 447.77 379.759 448.709C378.714 449.647 377.868 450.779 377.268 452.041C376.669 453.303 376.328 454.669 376.266 456.06C376.203 457.283 376.359 458.508 376.726 459.678C377.374 461.758 378.657 463.591 380.401 464.927C382.145 466.262 384.265 467.035 386.471 467.14Z" fill="#57B894"/>
<path d="M360.319 450.018C361.971 450.078 363.614 449.761 365.121 449.093C366.628 448.424 367.958 447.421 369.007 446.163C370.056 444.905 370.796 443.425 371.17 441.839C371.543 440.253 371.539 438.604 371.159 437.019C370.779 435.435 370.032 433.958 368.978 432.705C367.923 431.451 366.588 430.454 365.078 429.792C363.569 429.13 361.924 428.82 360.272 428.887C358.621 428.954 357.007 429.396 355.558 430.178L357.459 435.313L353.549 431.613C351.968 433.021 350.849 434.862 350.334 436.9C349.819 438.938 349.932 441.081 350.659 443.055C351.385 445.029 352.692 446.746 354.412 447.986C356.132 449.226 358.189 449.934 360.319 450.018Z" fill="#57B894"/>
<path opacity="0.1" d="M363.386 418.796C365.862 419.068 368.285 419.831 370.777 419.982C373.268 420.133 376.006 419.544 377.577 417.633C378.428 416.606 378.858 415.307 379.571 414.189C380.251 413.145 381.18 412.282 382.277 411.674C382.932 413.011 383.294 414.469 383.339 415.953C383.384 417.438 383.111 418.914 382.538 420.288C381.965 421.661 381.105 422.9 380.013 423.924C378.922 424.948 377.624 425.734 376.203 426.232C374.783 426.729 373.272 426.926 371.77 426.809C370.267 426.693 368.806 426.267 367.482 425.557C366.158 424.848 365 423.872 364.084 422.693C363.169 421.513 362.515 420.157 362.167 418.713C362.573 418.728 362.979 418.758 363.386 418.796Z" fill="black"/>
<path opacity="0.1" d="M360.319 450.018C362.17 450.098 364.011 449.706 365.664 448.88C367.317 448.054 368.726 446.823 369.754 445.305C370.783 443.786 371.397 442.033 371.538 440.212C371.678 438.392 371.339 436.567 370.554 434.913C369.696 435.479 368.959 436.205 368.385 437.05C367.618 438.191 367.158 439.505 366.253 440.555C364.582 442.496 361.714 443.13 359.123 443.009C356.531 442.889 354.017 442.171 351.456 441.937C351.095 441.937 350.727 441.877 350.367 441.869C350.9 444.109 352.16 446.116 353.956 447.587C355.752 449.058 357.986 449.911 360.319 450.018Z" fill="black"/>
<path opacity="0.1" d="M386.471 467.14C387.883 467.208 389.296 467 390.626 466.529C391.957 466.058 393.18 465.332 394.225 464.394C395.27 463.455 396.117 462.323 396.717 461.061C397.316 459.8 397.657 458.434 397.719 457.042C397.803 455.384 397.485 453.729 396.791 452.216C395.896 452.788 395.117 453.518 394.491 454.368C393.655 455.531 393.134 456.868 392.191 457.941C390.374 459.935 387.322 460.637 384.57 460.569C381.817 460.501 379.341 459.867 376.696 459.67C377.344 461.757 378.631 463.595 380.381 464.932C382.131 466.269 384.258 467.04 386.471 467.14Z" fill="black"/>
<path opacity="0.1" d="M381.104 487.72C381.681 488.989 382.505 490.133 383.53 491.088C384.556 492.043 385.762 492.789 387.08 493.284C388.398 493.78 389.803 494.015 391.213 493.976C392.623 493.936 394.012 493.624 395.3 493.056C396.587 492.488 397.749 491.676 398.718 490.666C399.687 489.656 400.445 488.468 400.948 487.17C401.451 485.871 401.689 484.488 401.65 483.099C401.61 481.709 401.293 480.341 400.716 479.073C399.832 479.646 399.036 480.343 398.355 481.142C397.335 482.373 396.66 483.763 395.48 484.918C393.279 487.048 389.729 487.939 386.563 488.007C384.739 488.015 382.917 487.919 381.104 487.72Z" fill="black"/>
<path d="M408 503.347C408 503.347 399.505 503.09 396.944 501.292C394.383 499.495 383.91 497.35 383.243 500.235C382.576 503.12 370.485 514.585 380.069 514.63C389.653 514.675 402.349 513.157 404.903 511.609C407.456 510.061 408 503.347 408 503.347Z" fill="#656380"/>
<path opacity="0.2" d="M379.9 513.626C389.492 513.701 402.181 512.153 404.734 510.605C406.681 509.441 407.456 505.25 407.716 503.316H408C408 503.316 407.463 510.061 404.933 511.624C402.403 513.188 389.691 514.706 380.1 514.645C377.332 514.645 376.381 513.656 376.427 512.213C376.788 513.067 377.838 513.61 379.9 513.626Z" fill="black"/>
</g>
<defs>
<clipPath id="clip0_38_0">
<rect width="408" height="520" fill="white" transform="matrix(-1 0 0 1 408 0)"/>
</clipPath>
</defs>
</svg>
